<?xml version="1.0" standalone="no"?>
<!DOCTYPE svg PUBLIC "-//W3C//DTD SVG 20010904//EN"
 "http://www.w3.org/TR/2001/REC-SVG-20010904/DTD/svg10.dtd">
<svg version="1.0" xmlns="http://www.w3.org/2000/svg"
 width="300.000000pt" height="300.000000pt" viewBox="0 0 300.000000 300.000000"
 preserveAspectRatio="xMidYMid meet">
<metadata>
Created by potrace 1.11, written by Peter Selinger 2001-2013
</metadata>
<g transform="translate(0.000000,300.000000) scale(0.100000,-0.100000)"
fill="#000000" stroke="none">
<path d="M0 1500 l0 -1500 1060 0 1060 0 4 23 c3 12 57 663 121 1447 64 784
119 1449 122 1478 l6 52 -1187 0 -1186 0 0 -1500z m1530 1243 c0 -5 11 -69 25
-143 14 -74 25 -138 25 -141 0 -3 -34 -9 -75 -13 -138 -13 -299 -70 -415 -149
-67 -46 -176 -154 -226 -224 -121 -169 -179 -395 -154 -598 44 -350 276 -628
620 -741 77 -25 99 -28 237 -28 83 -1 154 2 158 6 6 6 -99 626 -108 634 -2 2
-65 -8 -142 -22 -76 -14 -141 -21 -145 -17 -8 9 -54 273 -49 277 5 4 583 106
585 103 8 -12 212 -1203 206 -1208 -11 -10 -306 -60 -410 -69 -550 -48 -1074
317 -1216 849 -109 407 -8 814 277 1117 142 150 298 251 485 314 119 40 322
73 322 53z"/>
</g>
</svg>
